<?xml version="1.0" ?><!DOCTYPE svg  PUBLIC '-//W3C//DTD SVG 1.1//EN'  'http://www.w3.org/Graphics/SVG/1.1/DTD/svg11.dtd'><svg enable-background="new 0 0 144.083 144" height="144px" id="WeChat" version="1.1" viewBox="0 0 144.083 144" width="144.083px" xml:space="preserve" xmlns="http://www.w3.org/2000/svg" xmlns:xlink="http://www.w3.org/1999/xlink"><circle cx="70.104" cy="55.748" r="4.334"/><circle cx="78.938" cy="74.042" r="4.124"/><circle cx="51.657" cy="55.748" r="4.334"/><path d="M72.041,14.166C40.1,14.166,14.208,40.061,14.208,72s25.893,57.834,57.833,57.834c31.939,0,57.834-25.895,57.834-57.834  S103.98,14.166,72.041,14.166z M52.038,85.408l-10.008,4.51l2.087-7.973c-6.838-4.27-11.259-11.05-11.259-18.688  c0-12.917,12.636-23.386,28.223-23.386c13.07,0,24.061,7.361,27.272,17.352c-0.652-0.038-1.307-0.063-1.971-0.063  c-15.507,0-28.124,10.731-28.124,23.923c0,1.893,0.268,3.727,0.757,5.494C56.592,86.428,54.253,86.027,52.038,85.408z   M102.207,96.611l1.816,7.52l-8.262-4.195c-2.93,1.025-6.148,1.594-9.531,1.594c-13.527,0-24.493-9.088-24.493-20.297  c0-11.208,10.966-20.294,24.493-20.294c13.529,0,24.494,9.086,24.494,20.294C110.724,87.383,107.419,92.887,102.207,96.611z"/><circle cx="94.853" cy="74.042" r="4.124"/></svg>